<svg xmlns="http://www.w3.org/2000/svg" viewBox="0 0 32 32">
  <circle cx="16" cy="16" r="16" fill="#b85f69" />
  <path
    d="M16 5.2c-3.5 3.2-4.4 7.5 0 12.6 4.4-5.1 3.5-9.4 0-12.6Z"
    fill="#f5efe7"
  />
  <path
    d="M15.2 19c-1.5-6.3-4.8-9.3-8.6-9.6-.3 5.3 2.5 9.1 8.6 11.1V19ZM16.8 19c1.5-6.3 4.8-9.3 8.6-9.6.3 5.3-2.5 9.1-8.6 11.1V19Z"
    fill="#f0cdd1"
  />
  <path
    d="M13.8 20.8c-3.5-5.1-7.9-6.4-11.6-4.9 2.5 5.3 7.2 7.7 13.8 6.5 6.6 1.2 11.3-1.2 13.8-6.5-3.7-1.5-8.1-.2-11.6 4.9L16 23.1l-2.2-2.3Z"
    fill="#f5efe7"
  />
</svg>
